<?xml version="1.0" encoding="UTF-8" standalone="no"?>
<!DOCTYPE svg PUBLIC "-//W3C//DTD SVG 1.1//EN" "http://www.w3.org/Graphics/SVG/1.1/DTD/svg11.dtd">
<svg 
    width="100%" 
    height="100%" 
    viewBox="0 0 286 196" 
    version="1.1" 
    xmlns="http://www.w3.org/2000/svg" 
    xmlns:xlink="http://www.w3.org/1999/xlink" 
    xml:space="preserve" xmlns:serif="http://www.serif.com/" 
    style="fill-rule:evenodd;clip-rule:evenodd;stroke-linecap:round;stroke-linejoin:round;stroke-miterlimit:1.5;">
    <g transform="matrix(1,0,0,1,22.5901,-120.91)">
        <g transform="matrix(1,0,0,1,0,118)">
            <g transform="matrix(1,-0,-0,1,-22.5901,2.90992)">
                <path d="M38.564,165.103L22.59,173.09L38.564,181.077C34.57,177.083 34.57,169.097 38.564,165.103Z" style="fill:rgb(215, 205, 255);"/>
                <path d="M35.369,173.09L262.59,173.09" style="fill:none;stroke:rgb(215, 205, 255);;stroke-width:5.32px;"/>
            </g>
        </g>
        <g transform="matrix(1,0,0,1,0,-32.5)">
            <g transform="matrix(1,-0,-0,1,-22.5901,153.41)">
                <path d="M246.616,14.603L262.59,22.59L246.616,30.577C250.61,26.583 250.61,18.597 246.616,14.603Z" style="fill:rgb(215,205,255);"/>
                <path d="M22.59,22.59L249.811,22.59" style="fill:none;stroke:rgb(215, 205, 255);;stroke-width:5.32px;"/>
            </g>
        </g>
    </g>
</svg>
